<mxfile host="Electron" modified="2024-07-04T09:21:49.407Z" agent="Mozilla/5.0 (Windows NT 10.0; Win64; x64) AppleWebKit/537.36 (KHTML, like Gecko) draw.io/23.1.5 Chrome/120.0.6099.109 Electron/28.1.0 Safari/537.36" etag="pw9EMbLl1o1lNcUqXtzQ" version="23.1.5" type="device">
  <diagram name="第 1 页" id="KiRnRZ_dRjBHMvpk-0KB">
    <mxGraphModel dx="3407" dy="2427" grid="1" gridSize="10" guides="1" tooltips="1" connect="1" arrows="1" fold="1" page="1" pageScale="1" pageWidth="827" pageHeight="1169" math="0" shadow="0">
      <root>
        <mxCell id="0" />
        <mxCell id="1" parent="0" />
        <mxCell id="q7ibFokGOSPtYrDXfRHr-61" value="namespace json11" style="shape=umlFrame;whiteSpace=wrap;html=1;pointerEvents=0;width=90;height=40;" parent="1" vertex="1">
          <mxGeometry x="-300" y="-460" width="1550" height="2370" as="geometry" />
        </mxCell>
        <mxCell id="_ygPCdoVtNv-rxJqJa3W-2" value="Json" style="swimlane;fontStyle=1;align=center;verticalAlign=top;childLayout=stackLayout;horizontal=1;startSize=26;horizontalStack=0;resizeParent=1;resizeParentMax=0;resizeLast=0;collapsible=1;marginBottom=0;whiteSpace=wrap;html=1;" parent="1" vertex="1">
          <mxGeometry x="232" y="850" width="380" height="1022" as="geometry" />
        </mxCell>
        <mxCell id="_ygPCdoVtNv-rxJqJa3W-3" value="- m_ptr : sharde_ptr&amp;lt;JsonValue&amp;gt;" style="text;strokeColor=none;fillColor=none;align=left;verticalAlign=top;spacingLeft=4;spacingRight=4;overflow=hidden;rotatable=0;points=[[0,0.5],[1,0.5]];portConstraint=eastwest;whiteSpace=wrap;html=1;" parent="_ygPCdoVtNv-rxJqJa3W-2" vertex="1">
          <mxGeometry y="26" width="380" height="26" as="geometry" />
        </mxCell>
        <mxCell id="_ygPCdoVtNv-rxJqJa3W-4" value="" style="line;strokeWidth=1;fillColor=none;align=left;verticalAlign=middle;spacingTop=-1;spacingLeft=3;spacingRight=3;rotatable=0;labelPosition=right;points=[];portConstraint=eastwest;strokeColor=inherit;" parent="_ygPCdoVtNv-rxJqJa3W-2" vertex="1">
          <mxGeometry y="52" width="380" height="8" as="geometry" />
        </mxCell>
        <mxCell id="_ygPCdoVtNv-rxJqJa3W-5" value="+ Json()" style="text;strokeColor=none;fillColor=none;align=left;verticalAlign=top;spacingLeft=4;spacingRight=4;overflow=hidden;rotatable=0;points=[[0,0.5],[1,0.5]];portConstraint=eastwest;whiteSpace=wrap;html=1;" parent="_ygPCdoVtNv-rxJqJa3W-2" vertex="1">
          <mxGeometry y="60" width="380" height="26" as="geometry" />
        </mxCell>
        <mxCell id="DcjB_DtGqzypuuOy7Dff-1" value="+ Json(nulptr)" style="text;strokeColor=none;fillColor=none;align=left;verticalAlign=top;spacingLeft=4;spacingRight=4;overflow=hidden;rotatable=0;points=[[0,0.5],[1,0.5]];portConstraint=eastwest;whiteSpace=wrap;html=1;" parent="_ygPCdoVtNv-rxJqJa3W-2" vertex="1">
          <mxGeometry y="86" width="380" height="26" as="geometry" />
        </mxCell>
        <mxCell id="DcjB_DtGqzypuuOy7Dff-12" value="+ Json(bool)" style="text;strokeColor=none;fillColor=none;align=left;verticalAlign=top;spacingLeft=4;spacingRight=4;overflow=hidden;rotatable=0;points=[[0,0.5],[1,0.5]];portConstraint=eastwest;whiteSpace=wrap;html=1;" parent="_ygPCdoVtNv-rxJqJa3W-2" vertex="1">
          <mxGeometry y="112" width="380" height="26" as="geometry" />
        </mxCell>
        <mxCell id="DcjB_DtGqzypuuOy7Dff-13" value="+ Json(double)" style="text;strokeColor=none;fillColor=none;align=left;verticalAlign=top;spacingLeft=4;spacingRight=4;overflow=hidden;rotatable=0;points=[[0,0.5],[1,0.5]];portConstraint=eastwest;whiteSpace=wrap;html=1;" parent="_ygPCdoVtNv-rxJqJa3W-2" vertex="1">
          <mxGeometry y="138" width="380" height="26" as="geometry" />
        </mxCell>
        <mxCell id="DcjB_DtGqzypuuOy7Dff-14" value="+ Json(const string&amp;amp;)" style="text;strokeColor=none;fillColor=none;align=left;verticalAlign=top;spacingLeft=4;spacingRight=4;overflow=hidden;rotatable=0;points=[[0,0.5],[1,0.5]];portConstraint=eastwest;whiteSpace=wrap;html=1;" parent="_ygPCdoVtNv-rxJqJa3W-2" vertex="1">
          <mxGeometry y="164" width="380" height="26" as="geometry" />
        </mxCell>
        <mxCell id="DcjB_DtGqzypuuOy7Dff-15" value="+ Json(sting&amp;amp;&amp;amp;)" style="text;strokeColor=none;fillColor=none;align=left;verticalAlign=top;spacingLeft=4;spacingRight=4;overflow=hidden;rotatable=0;points=[[0,0.5],[1,0.5]];portConstraint=eastwest;whiteSpace=wrap;html=1;" parent="_ygPCdoVtNv-rxJqJa3W-2" vertex="1">
          <mxGeometry y="190" width="380" height="26" as="geometry" />
        </mxCell>
        <mxCell id="DcjB_DtGqzypuuOy7Dff-16" value="+ Json(const char*)" style="text;strokeColor=none;fillColor=none;align=left;verticalAlign=top;spacingLeft=4;spacingRight=4;overflow=hidden;rotatable=0;points=[[0,0.5],[1,0.5]];portConstraint=eastwest;whiteSpace=wrap;html=1;" parent="_ygPCdoVtNv-rxJqJa3W-2" vertex="1">
          <mxGeometry y="216" width="380" height="26" as="geometry" />
        </mxCell>
        <mxCell id="DcjB_DtGqzypuuOy7Dff-17" value="+ Json(const array&amp;amp;)" style="text;strokeColor=none;fillColor=none;align=left;verticalAlign=top;spacingLeft=4;spacingRight=4;overflow=hidden;rotatable=0;points=[[0,0.5],[1,0.5]];portConstraint=eastwest;whiteSpace=wrap;html=1;" parent="_ygPCdoVtNv-rxJqJa3W-2" vertex="1">
          <mxGeometry y="242" width="380" height="26" as="geometry" />
        </mxCell>
        <mxCell id="DcjB_DtGqzypuuOy7Dff-18" value="+ Json(array&amp;amp;&amp;amp;)" style="text;strokeColor=none;fillColor=none;align=left;verticalAlign=top;spacingLeft=4;spacingRight=4;overflow=hidden;rotatable=0;points=[[0,0.5],[1,0.5]];portConstraint=eastwest;whiteSpace=wrap;html=1;" parent="_ygPCdoVtNv-rxJqJa3W-2" vertex="1">
          <mxGeometry y="268" width="380" height="26" as="geometry" />
        </mxCell>
        <mxCell id="DcjB_DtGqzypuuOy7Dff-19" value="+ Json(const object&amp;amp;)" style="text;strokeColor=none;fillColor=none;align=left;verticalAlign=top;spacingLeft=4;spacingRight=4;overflow=hidden;rotatable=0;points=[[0,0.5],[1,0.5]];portConstraint=eastwest;whiteSpace=wrap;html=1;" parent="_ygPCdoVtNv-rxJqJa3W-2" vertex="1">
          <mxGeometry y="294" width="380" height="26" as="geometry" />
        </mxCell>
        <mxCell id="iD4TSVQBTH0m3GLCbqSj-36" value="+ Json(object&amp;amp;&amp;amp;)" style="text;strokeColor=none;fillColor=none;align=left;verticalAlign=top;spacingLeft=4;spacingRight=4;overflow=hidden;rotatable=0;points=[[0,0.5],[1,0.5]];portConstraint=eastwest;whiteSpace=wrap;html=1;" vertex="1" parent="_ygPCdoVtNv-rxJqJa3W-2">
          <mxGeometry y="320" width="380" height="26" as="geometry" />
        </mxCell>
        <mxCell id="DcjB_DtGqzypuuOy7Dff-21" value="+ operator== (const Json&amp;amp;) : bool" style="text;strokeColor=none;fillColor=none;align=left;verticalAlign=top;spacingLeft=4;spacingRight=4;overflow=hidden;rotatable=0;points=[[0,0.5],[1,0.5]];portConstraint=eastwest;whiteSpace=wrap;html=1;" parent="_ygPCdoVtNv-rxJqJa3W-2" vertex="1">
          <mxGeometry y="346" width="380" height="26" as="geometry" />
        </mxCell>
        <mxCell id="DcjB_DtGqzypuuOy7Dff-22" value="+ operator&amp;gt;&amp;nbsp; &amp;nbsp;(const Json&amp;amp;) : bool" style="text;strokeColor=none;fillColor=none;align=left;verticalAlign=top;spacingLeft=4;spacingRight=4;overflow=hidden;rotatable=0;points=[[0,0.5],[1,0.5]];portConstraint=eastwest;whiteSpace=wrap;html=1;" parent="_ygPCdoVtNv-rxJqJa3W-2" vertex="1">
          <mxGeometry y="372" width="380" height="26" as="geometry" />
        </mxCell>
        <mxCell id="DcjB_DtGqzypuuOy7Dff-27" value="+ operator!= (const Json&amp;amp;) : bool" style="text;strokeColor=none;fillColor=none;align=left;verticalAlign=top;spacingLeft=4;spacingRight=4;overflow=hidden;rotatable=0;points=[[0,0.5],[1,0.5]];portConstraint=eastwest;whiteSpace=wrap;html=1;" parent="_ygPCdoVtNv-rxJqJa3W-2" vertex="1">
          <mxGeometry y="398" width="380" height="26" as="geometry" />
        </mxCell>
        <mxCell id="DcjB_DtGqzypuuOy7Dff-28" value="+ operator&amp;lt;= (const Json&amp;amp;) : bool" style="text;strokeColor=none;fillColor=none;align=left;verticalAlign=top;spacingLeft=4;spacingRight=4;overflow=hidden;rotatable=0;points=[[0,0.5],[1,0.5]];portConstraint=eastwest;whiteSpace=wrap;html=1;" parent="_ygPCdoVtNv-rxJqJa3W-2" vertex="1">
          <mxGeometry y="424" width="380" height="26" as="geometry" />
        </mxCell>
        <mxCell id="DcjB_DtGqzypuuOy7Dff-29" value="+ operator&amp;gt; (const Json&amp;amp;) : bool" style="text;strokeColor=none;fillColor=none;align=left;verticalAlign=top;spacingLeft=4;spacingRight=4;overflow=hidden;rotatable=0;points=[[0,0.5],[1,0.5]];portConstraint=eastwest;whiteSpace=wrap;html=1;" parent="_ygPCdoVtNv-rxJqJa3W-2" vertex="1">
          <mxGeometry y="450" width="380" height="26" as="geometry" />
        </mxCell>
        <mxCell id="DcjB_DtGqzypuuOy7Dff-30" value="+ operator&amp;gt;= (const Json&amp;amp;) : bool" style="text;strokeColor=none;fillColor=none;align=left;verticalAlign=top;spacingLeft=4;spacingRight=4;overflow=hidden;rotatable=0;points=[[0,0.5],[1,0.5]];portConstraint=eastwest;whiteSpace=wrap;html=1;" parent="_ygPCdoVtNv-rxJqJa3W-2" vertex="1">
          <mxGeometry y="476" width="380" height="26" as="geometry" />
        </mxCell>
        <mxCell id="DcjB_DtGqzypuuOy7Dff-36" value="&lt;u&gt;+ parse(const string&amp;amp;, string&amp;amp;) : Json&lt;/u&gt;" style="text;strokeColor=none;fillColor=none;align=left;verticalAlign=top;spacingLeft=4;spacingRight=4;overflow=hidden;rotatable=0;points=[[0,0.5],[1,0.5]];portConstraint=eastwest;whiteSpace=wrap;html=1;" parent="_ygPCdoVtNv-rxJqJa3W-2" vertex="1">
          <mxGeometry y="502" width="380" height="26" as="geometry" />
        </mxCell>
        <mxCell id="DcjB_DtGqzypuuOy7Dff-37" value="&lt;u&gt;+ parse(const char*, string&amp;amp;) : Json&lt;/u&gt;" style="text;strokeColor=none;fillColor=none;align=left;verticalAlign=top;spacingLeft=4;spacingRight=4;overflow=hidden;rotatable=0;points=[[0,0.5],[1,0.5]];portConstraint=eastwest;whiteSpace=wrap;html=1;" parent="_ygPCdoVtNv-rxJqJa3W-2" vertex="1">
          <mxGeometry y="528" width="380" height="26" as="geometry" />
        </mxCell>
        <mxCell id="DcjB_DtGqzypuuOy7Dff-42" value="&lt;u&gt;+ parse_multi(const string&amp;amp;, string&amp;amp;) : array&lt;/u&gt;" style="text;strokeColor=none;fillColor=none;align=left;verticalAlign=top;spacingLeft=4;spacingRight=4;overflow=hidden;rotatable=0;points=[[0,0.5],[1,0.5]];portConstraint=eastwest;whiteSpace=wrap;html=1;" parent="_ygPCdoVtNv-rxJqJa3W-2" vertex="1">
          <mxGeometry y="554" width="380" height="26" as="geometry" />
        </mxCell>
        <mxCell id="DcjB_DtGqzypuuOy7Dff-40" value="+ dump(string&amp;amp;)&amp;nbsp;const" style="text;strokeColor=none;fillColor=none;align=left;verticalAlign=top;spacingLeft=4;spacingRight=4;overflow=hidden;rotatable=0;points=[[0,0.5],[1,0.5]];portConstraint=eastwest;whiteSpace=wrap;html=1;" parent="_ygPCdoVtNv-rxJqJa3W-2" vertex="1">
          <mxGeometry y="580" width="380" height="26" as="geometry" />
        </mxCell>
        <mxCell id="DcjB_DtGqzypuuOy7Dff-41" value="+ dump()&amp;nbsp;const&amp;nbsp;: string" style="text;strokeColor=none;fillColor=none;align=left;verticalAlign=top;spacingLeft=4;spacingRight=4;overflow=hidden;rotatable=0;points=[[0,0.5],[1,0.5]];portConstraint=eastwest;whiteSpace=wrap;html=1;" parent="_ygPCdoVtNv-rxJqJa3W-2" vertex="1">
          <mxGeometry y="606" width="380" height="26" as="geometry" />
        </mxCell>
        <mxCell id="DcjB_DtGqzypuuOy7Dff-43" value="+ type()&amp;nbsp;const&amp;nbsp;: JsonType" style="text;strokeColor=none;fillColor=none;align=left;verticalAlign=top;spacingLeft=4;spacingRight=4;overflow=hidden;rotatable=0;points=[[0,0.5],[1,0.5]];portConstraint=eastwest;whiteSpace=wrap;html=1;" parent="_ygPCdoVtNv-rxJqJa3W-2" vertex="1">
          <mxGeometry y="632" width="380" height="26" as="geometry" />
        </mxCell>
        <mxCell id="DcjB_DtGqzypuuOy7Dff-44" value="+ is_null()&amp;nbsp;const&amp;nbsp; : bool" style="text;strokeColor=none;fillColor=none;align=left;verticalAlign=top;spacingLeft=4;spacingRight=4;overflow=hidden;rotatable=0;points=[[0,0.5],[1,0.5]];portConstraint=eastwest;whiteSpace=wrap;html=1;" parent="_ygPCdoVtNv-rxJqJa3W-2" vertex="1">
          <mxGeometry y="658" width="380" height="26" as="geometry" />
        </mxCell>
        <mxCell id="DcjB_DtGqzypuuOy7Dff-45" value="+ is_bool()&amp;nbsp;const&amp;nbsp;: bool" style="text;strokeColor=none;fillColor=none;align=left;verticalAlign=top;spacingLeft=4;spacingRight=4;overflow=hidden;rotatable=0;points=[[0,0.5],[1,0.5]];portConstraint=eastwest;whiteSpace=wrap;html=1;" parent="_ygPCdoVtNv-rxJqJa3W-2" vertex="1">
          <mxGeometry y="684" width="380" height="26" as="geometry" />
        </mxCell>
        <mxCell id="DcjB_DtGqzypuuOy7Dff-46" value="+ is_number()&amp;nbsp;const&amp;nbsp;: bool" style="text;strokeColor=none;fillColor=none;align=left;verticalAlign=top;spacingLeft=4;spacingRight=4;overflow=hidden;rotatable=0;points=[[0,0.5],[1,0.5]];portConstraint=eastwest;whiteSpace=wrap;html=1;" parent="_ygPCdoVtNv-rxJqJa3W-2" vertex="1">
          <mxGeometry y="710" width="380" height="26" as="geometry" />
        </mxCell>
        <mxCell id="DcjB_DtGqzypuuOy7Dff-47" value="+ is_string() const : bool" style="text;strokeColor=none;fillColor=none;align=left;verticalAlign=top;spacingLeft=4;spacingRight=4;overflow=hidden;rotatable=0;points=[[0,0.5],[1,0.5]];portConstraint=eastwest;whiteSpace=wrap;html=1;" parent="_ygPCdoVtNv-rxJqJa3W-2" vertex="1">
          <mxGeometry y="736" width="380" height="26" as="geometry" />
        </mxCell>
        <mxCell id="DcjB_DtGqzypuuOy7Dff-48" value="+ is_array() const : bool" style="text;strokeColor=none;fillColor=none;align=left;verticalAlign=top;spacingLeft=4;spacingRight=4;overflow=hidden;rotatable=0;points=[[0,0.5],[1,0.5]];portConstraint=eastwest;whiteSpace=wrap;html=1;" parent="_ygPCdoVtNv-rxJqJa3W-2" vertex="1">
          <mxGeometry y="762" width="380" height="26" as="geometry" />
        </mxCell>
        <mxCell id="iD4TSVQBTH0m3GLCbqSj-39" value="+ is_object() const : bool" style="text;strokeColor=none;fillColor=none;align=left;verticalAlign=top;spacingLeft=4;spacingRight=4;overflow=hidden;rotatable=0;points=[[0,0.5],[1,0.5]];portConstraint=eastwest;whiteSpace=wrap;html=1;" vertex="1" parent="_ygPCdoVtNv-rxJqJa3W-2">
          <mxGeometry y="788" width="380" height="26" as="geometry" />
        </mxCell>
        <mxCell id="DcjB_DtGqzypuuOy7Dff-49" value="+ has_shape(const shape&amp;amp;, string&amp;amp;) const : bool" style="text;strokeColor=none;fillColor=none;align=left;verticalAlign=top;spacingLeft=4;spacingRight=4;overflow=hidden;rotatable=0;points=[[0,0.5],[1,0.5]];portConstraint=eastwest;whiteSpace=wrap;html=1;" parent="_ygPCdoVtNv-rxJqJa3W-2" vertex="1">
          <mxGeometry y="814" width="380" height="26" as="geometry" />
        </mxCell>
        <mxCell id="DcjB_DtGqzypuuOy7Dff-50" value="+ bool_value()&amp;nbsp;const&amp;nbsp;: bool" style="text;strokeColor=none;fillColor=none;align=left;verticalAlign=top;spacingLeft=4;spacingRight=4;overflow=hidden;rotatable=0;points=[[0,0.5],[1,0.5]];portConstraint=eastwest;whiteSpace=wrap;html=1;" parent="_ygPCdoVtNv-rxJqJa3W-2" vertex="1">
          <mxGeometry y="840" width="380" height="26" as="geometry" />
        </mxCell>
        <mxCell id="DcjB_DtGqzypuuOy7Dff-51" value="+ number_value()&amp;nbsp;const&amp;nbsp;: double" style="text;strokeColor=none;fillColor=none;align=left;verticalAlign=top;spacingLeft=4;spacingRight=4;overflow=hidden;rotatable=0;points=[[0,0.5],[1,0.5]];portConstraint=eastwest;whiteSpace=wrap;html=1;" parent="_ygPCdoVtNv-rxJqJa3W-2" vertex="1">
          <mxGeometry y="866" width="380" height="26" as="geometry" />
        </mxCell>
        <mxCell id="DcjB_DtGqzypuuOy7Dff-52" value="+ string_value()&amp;nbsp;const&amp;nbsp;: const string&amp;amp;" style="text;strokeColor=none;fillColor=none;align=left;verticalAlign=top;spacingLeft=4;spacingRight=4;overflow=hidden;rotatable=0;points=[[0,0.5],[1,0.5]];portConstraint=eastwest;whiteSpace=wrap;html=1;" parent="_ygPCdoVtNv-rxJqJa3W-2" vertex="1">
          <mxGeometry y="892" width="380" height="26" as="geometry" />
        </mxCell>
        <mxCell id="DcjB_DtGqzypuuOy7Dff-53" value="+ array_items()&amp;nbsp;const&amp;nbsp;: const array&amp;amp;" style="text;strokeColor=none;fillColor=none;align=left;verticalAlign=top;spacingLeft=4;spacingRight=4;overflow=hidden;rotatable=0;points=[[0,0.5],[1,0.5]];portConstraint=eastwest;whiteSpace=wrap;html=1;" parent="_ygPCdoVtNv-rxJqJa3W-2" vertex="1">
          <mxGeometry y="918" width="380" height="26" as="geometry" />
        </mxCell>
        <mxCell id="DcjB_DtGqzypuuOy7Dff-54" value="+ object_items()&amp;nbsp;const&amp;nbsp;: const object&amp;amp;" style="text;strokeColor=none;fillColor=none;align=left;verticalAlign=top;spacingLeft=4;spacingRight=4;overflow=hidden;rotatable=0;points=[[0,0.5],[1,0.5]];portConstraint=eastwest;whiteSpace=wrap;html=1;" parent="_ygPCdoVtNv-rxJqJa3W-2" vertex="1">
          <mxGeometry y="944" width="380" height="26" as="geometry" />
        </mxCell>
        <mxCell id="DcjB_DtGqzypuuOy7Dff-55" value="+ operator[] (size_t)&amp;nbsp;const&amp;nbsp;: const Json&amp;amp;" style="text;strokeColor=none;fillColor=none;align=left;verticalAlign=top;spacingLeft=4;spacingRight=4;overflow=hidden;rotatable=0;points=[[0,0.5],[1,0.5]];portConstraint=eastwest;whiteSpace=wrap;html=1;" parent="_ygPCdoVtNv-rxJqJa3W-2" vertex="1">
          <mxGeometry y="970" width="380" height="26" as="geometry" />
        </mxCell>
        <mxCell id="DcjB_DtGqzypuuOy7Dff-56" value="+ operator(const stirng&amp;amp;)&amp;nbsp;const&amp;nbsp;: const Json&amp;amp;" style="text;strokeColor=none;fillColor=none;align=left;verticalAlign=top;spacingLeft=4;spacingRight=4;overflow=hidden;rotatable=0;points=[[0,0.5],[1,0.5]];portConstraint=eastwest;whiteSpace=wrap;html=1;" parent="_ygPCdoVtNv-rxJqJa3W-2" vertex="1">
          <mxGeometry y="996" width="380" height="26" as="geometry" />
        </mxCell>
        <mxCell id="_ygPCdoVtNv-rxJqJa3W-6" value="《interface》&lt;br&gt;JsonValue" style="swimlane;fontStyle=1;align=center;verticalAlign=top;childLayout=stackLayout;horizontal=1;startSize=40;horizontalStack=0;resizeParent=1;resizeParentMax=0;resizeLast=0;collapsible=1;marginBottom=0;whiteSpace=wrap;html=1;" parent="1" vertex="1">
          <mxGeometry x="230" y="410" width="382" height="330" as="geometry" />
        </mxCell>
        <mxCell id="_ygPCdoVtNv-rxJqJa3W-8" value="" style="line;strokeWidth=1;fillColor=none;align=left;verticalAlign=middle;spacingTop=-1;spacingLeft=3;spacingRight=3;rotatable=0;labelPosition=right;points=[];portConstraint=eastwest;strokeColor=inherit;" parent="_ygPCdoVtNv-rxJqJa3W-6" vertex="1">
          <mxGeometry y="40" width="382" height="4" as="geometry" />
        </mxCell>
        <mxCell id="q7ibFokGOSPtYrDXfRHr-17" value="&lt;i&gt;+ type() const : JsonType&lt;/i&gt;" style="text;strokeColor=none;fillColor=none;align=left;verticalAlign=top;spacingLeft=4;spacingRight=4;overflow=hidden;rotatable=0;points=[[0,0.5],[1,0.5]];portConstraint=eastwest;whiteSpace=wrap;html=1;" parent="_ygPCdoVtNv-rxJqJa3W-6" vertex="1">
          <mxGeometry y="44" width="382" height="26" as="geometry" />
        </mxCell>
        <mxCell id="q7ibFokGOSPtYrDXfRHr-18" value="&lt;i&gt;+ equals(const JsonValue* ) const : bool&lt;/i&gt;" style="text;strokeColor=none;fillColor=none;align=left;verticalAlign=top;spacingLeft=4;spacingRight=4;overflow=hidden;rotatable=0;points=[[0,0.5],[1,0.5]];portConstraint=eastwest;whiteSpace=wrap;html=1;" parent="_ygPCdoVtNv-rxJqJa3W-6" vertex="1">
          <mxGeometry y="70" width="382" height="26" as="geometry" />
        </mxCell>
        <mxCell id="_ygPCdoVtNv-rxJqJa3W-9" value="&lt;i&gt;+ less(const JsonValue*) const : bool&lt;/i&gt;" style="text;strokeColor=none;fillColor=none;align=left;verticalAlign=top;spacingLeft=4;spacingRight=4;overflow=hidden;rotatable=0;points=[[0,0.5],[1,0.5]];portConstraint=eastwest;whiteSpace=wrap;html=1;" parent="_ygPCdoVtNv-rxJqJa3W-6" vertex="1">
          <mxGeometry y="96" width="382" height="26" as="geometry" />
        </mxCell>
        <mxCell id="q7ibFokGOSPtYrDXfRHr-19" value="+ dump(string&amp;amp;) const" style="text;strokeColor=none;fillColor=none;align=left;verticalAlign=top;spacingLeft=4;spacingRight=4;overflow=hidden;rotatable=0;points=[[0,0.5],[1,0.5]];portConstraint=eastwest;whiteSpace=wrap;html=1;" parent="_ygPCdoVtNv-rxJqJa3W-6" vertex="1">
          <mxGeometry y="122" width="382" height="26" as="geometry" />
        </mxCell>
        <mxCell id="q7ibFokGOSPtYrDXfRHr-20" value="+ bool_value() const : bool" style="text;strokeColor=none;fillColor=none;align=left;verticalAlign=top;spacingLeft=4;spacingRight=4;overflow=hidden;rotatable=0;points=[[0,0.5],[1,0.5]];portConstraint=eastwest;whiteSpace=wrap;html=1;" parent="_ygPCdoVtNv-rxJqJa3W-6" vertex="1">
          <mxGeometry y="148" width="382" height="26" as="geometry" />
        </mxCell>
        <mxCell id="q7ibFokGOSPtYrDXfRHr-21" value="+ number_value() const : double" style="text;strokeColor=none;fillColor=none;align=left;verticalAlign=top;spacingLeft=4;spacingRight=4;overflow=hidden;rotatable=0;points=[[0,0.5],[1,0.5]];portConstraint=eastwest;whiteSpace=wrap;html=1;" parent="_ygPCdoVtNv-rxJqJa3W-6" vertex="1">
          <mxGeometry y="174" width="382" height="26" as="geometry" />
        </mxCell>
        <mxCell id="q7ibFokGOSPtYrDXfRHr-22" value="+ string_value() const : const string&amp;amp;" style="text;strokeColor=none;fillColor=none;align=left;verticalAlign=top;spacingLeft=4;spacingRight=4;overflow=hidden;rotatable=0;points=[[0,0.5],[1,0.5]];portConstraint=eastwest;whiteSpace=wrap;html=1;" parent="_ygPCdoVtNv-rxJqJa3W-6" vertex="1">
          <mxGeometry y="200" width="382" height="26" as="geometry" />
        </mxCell>
        <mxCell id="q7ibFokGOSPtYrDXfRHr-23" value="+ array_items() const : const JsonArray&amp;amp;" style="text;strokeColor=none;fillColor=none;align=left;verticalAlign=top;spacingLeft=4;spacingRight=4;overflow=hidden;rotatable=0;points=[[0,0.5],[1,0.5]];portConstraint=eastwest;whiteSpace=wrap;html=1;" parent="_ygPCdoVtNv-rxJqJa3W-6" vertex="1">
          <mxGeometry y="226" width="382" height="26" as="geometry" />
        </mxCell>
        <mxCell id="q7ibFokGOSPtYrDXfRHr-24" value="+ object_items() const : const JsonObject&amp;amp;" style="text;strokeColor=none;fillColor=none;align=left;verticalAlign=top;spacingLeft=4;spacingRight=4;overflow=hidden;rotatable=0;points=[[0,0.5],[1,0.5]];portConstraint=eastwest;whiteSpace=wrap;html=1;" parent="_ygPCdoVtNv-rxJqJa3W-6" vertex="1">
          <mxGeometry y="252" width="382" height="26" as="geometry" />
        </mxCell>
        <mxCell id="q7ibFokGOSPtYrDXfRHr-25" value="+ operator[] (size_t) const : const shared_ptr&amp;lt; JsonValue &amp;gt;&amp;amp;" style="text;strokeColor=none;fillColor=none;align=left;verticalAlign=top;spacingLeft=4;spacingRight=4;overflow=hidden;rotatable=0;points=[[0,0.5],[1,0.5]];portConstraint=eastwest;whiteSpace=wrap;html=1;" parent="_ygPCdoVtNv-rxJqJa3W-6" vertex="1">
          <mxGeometry y="278" width="382" height="26" as="geometry" />
        </mxCell>
        <mxCell id="q7ibFokGOSPtYrDXfRHr-26" value="+ operator[] (const string&amp;amp;) const : const shared_ptr&amp;lt; JsonValue &amp;gt;&amp;amp;" style="text;strokeColor=none;fillColor=none;align=left;verticalAlign=top;spacingLeft=4;spacingRight=4;overflow=hidden;rotatable=0;points=[[0,0.5],[1,0.5]];portConstraint=eastwest;whiteSpace=wrap;html=1;" parent="_ygPCdoVtNv-rxJqJa3W-6" vertex="1">
          <mxGeometry y="304" width="382" height="26" as="geometry" />
        </mxCell>
        <mxCell id="_ygPCdoVtNv-rxJqJa3W-26" value="Value&amp;lt;JsonType, typename T&amp;gt;" style="swimlane;fontStyle=1;align=center;verticalAlign=top;childLayout=stackLayout;horizontal=1;startSize=26;horizontalStack=0;resizeParent=1;resizeParentMax=0;resizeLast=0;collapsible=1;marginBottom=0;whiteSpace=wrap;html=1;" parent="1" vertex="1">
          <mxGeometry x="275.5" y="-70" width="291" height="190" as="geometry" />
        </mxCell>
        <mxCell id="_ygPCdoVtNv-rxJqJa3W-27" value="# m_value : T" style="text;strokeColor=none;fillColor=none;align=left;verticalAlign=top;spacingLeft=4;spacingRight=4;overflow=hidden;rotatable=0;points=[[0,0.5],[1,0.5]];portConstraint=eastwest;whiteSpace=wrap;html=1;" parent="_ygPCdoVtNv-rxJqJa3W-26" vertex="1">
          <mxGeometry y="26" width="291" height="26" as="geometry" />
        </mxCell>
        <mxCell id="_ygPCdoVtNv-rxJqJa3W-28" value="" style="line;strokeWidth=1;fillColor=none;align=left;verticalAlign=middle;spacingTop=-1;spacingLeft=3;spacingRight=3;rotatable=0;labelPosition=right;points=[];portConstraint=eastwest;strokeColor=inherit;" parent="_ygPCdoVtNv-rxJqJa3W-26" vertex="1">
          <mxGeometry y="52" width="291" height="8" as="geometry" />
        </mxCell>
        <mxCell id="_ygPCdoVtNv-rxJqJa3W-29" value="+ Value(const T&amp;amp; value)" style="text;strokeColor=none;fillColor=none;align=left;verticalAlign=top;spacingLeft=4;spacingRight=4;overflow=hidden;rotatable=0;points=[[0,0.5],[1,0.5]];portConstraint=eastwest;whiteSpace=wrap;html=1;" parent="_ygPCdoVtNv-rxJqJa3W-26" vertex="1">
          <mxGeometry y="60" width="291" height="26" as="geometry" />
        </mxCell>
        <mxCell id="q7ibFokGOSPtYrDXfRHr-3" value="+ Value(T&amp;amp;&amp;amp; value)" style="text;strokeColor=none;fillColor=none;align=left;verticalAlign=top;spacingLeft=4;spacingRight=4;overflow=hidden;rotatable=0;points=[[0,0.5],[1,0.5]];portConstraint=eastwest;whiteSpace=wrap;html=1;" parent="_ygPCdoVtNv-rxJqJa3W-26" vertex="1">
          <mxGeometry y="86" width="291" height="26" as="geometry" />
        </mxCell>
        <mxCell id="q7ibFokGOSPtYrDXfRHr-4" value="+ type() const : JsonType" style="text;strokeColor=none;fillColor=none;align=left;verticalAlign=top;spacingLeft=4;spacingRight=4;overflow=hidden;rotatable=0;points=[[0,0.5],[1,0.5]];portConstraint=eastwest;whiteSpace=wrap;html=1;" parent="_ygPCdoVtNv-rxJqJa3W-26" vertex="1">
          <mxGeometry y="112" width="291" height="26" as="geometry" />
        </mxCell>
        <mxCell id="q7ibFokGOSPtYrDXfRHr-5" value="+ equals(const JsonValue*) const : bool" style="text;strokeColor=none;fillColor=none;align=left;verticalAlign=top;spacingLeft=4;spacingRight=4;overflow=hidden;rotatable=0;points=[[0,0.5],[1,0.5]];portConstraint=eastwest;whiteSpace=wrap;html=1;" parent="_ygPCdoVtNv-rxJqJa3W-26" vertex="1">
          <mxGeometry y="138" width="291" height="26" as="geometry" />
        </mxCell>
        <mxCell id="q7ibFokGOSPtYrDXfRHr-6" value="+ less(const JsonValue*) const : bool" style="text;strokeColor=none;fillColor=none;align=left;verticalAlign=top;spacingLeft=4;spacingRight=4;overflow=hidden;rotatable=0;points=[[0,0.5],[1,0.5]];portConstraint=eastwest;whiteSpace=wrap;html=1;" parent="_ygPCdoVtNv-rxJqJa3W-26" vertex="1">
          <mxGeometry y="164" width="291" height="26" as="geometry" />
        </mxCell>
        <mxCell id="_ygPCdoVtNv-rxJqJa3W-30" value="" style="endArrow=block;dashed=1;endFill=0;endSize=12;html=1;rounded=0;" parent="1" source="_ygPCdoVtNv-rxJqJa3W-26" target="_ygPCdoVtNv-rxJqJa3W-6" edge="1">
          <mxGeometry width="160" relative="1" as="geometry">
            <mxPoint x="100" y="-70" as="sourcePoint" />
            <mxPoint x="260" y="-70" as="targetPoint" />
          </mxGeometry>
        </mxCell>
        <mxCell id="_ygPCdoVtNv-rxJqJa3W-31" value="&amp;lt;Type::NULL, NullStruct&amp;gt;" style="endArrow=block;endSize=16;endFill=0;html=1;rounded=0;exitX=0;exitY=0;exitDx=0;exitDy=0;" parent="1" source="_ygPCdoVtNv-rxJqJa3W-10" target="_ygPCdoVtNv-rxJqJa3W-26" edge="1">
          <mxGeometry x="0.0055" width="160" relative="1" as="geometry">
            <mxPoint x="1060" y="160" as="sourcePoint" />
            <mxPoint x="140" y="20" as="targetPoint" />
            <mxPoint as="offset" />
          </mxGeometry>
        </mxCell>
        <mxCell id="_ygPCdoVtNv-rxJqJa3W-32" value="&amp;lt;Type::BOOL, bool&amp;gt;" style="endArrow=block;endSize=16;endFill=0;html=1;rounded=0;exitX=0;exitY=0;exitDx=0;exitDy=0;" parent="1" source="_ygPCdoVtNv-rxJqJa3W-14" target="_ygPCdoVtNv-rxJqJa3W-26" edge="1">
          <mxGeometry width="160" relative="1" as="geometry">
            <mxPoint x="830" y="-270" as="sourcePoint" />
            <mxPoint x="460" y="80" as="targetPoint" />
          </mxGeometry>
        </mxCell>
        <mxCell id="_ygPCdoVtNv-rxJqJa3W-34" value="&amp;lt;Type::NUMBER, double&amp;gt;" style="endArrow=block;endSize=16;endFill=0;html=1;rounded=0;exitX=0;exitY=0;exitDx=0;exitDy=0;" parent="1" source="_ygPCdoVtNv-rxJqJa3W-22" target="_ygPCdoVtNv-rxJqJa3W-26" edge="1">
          <mxGeometry width="160" relative="1" as="geometry">
            <mxPoint x="300" y="80" as="sourcePoint" />
            <mxPoint x="460" y="80" as="targetPoint" />
          </mxGeometry>
        </mxCell>
        <mxCell id="_ygPCdoVtNv-rxJqJa3W-38" value="Use" style="endArrow=open;endSize=12;dashed=1;html=1;rounded=0;" parent="1" source="_ygPCdoVtNv-rxJqJa3W-2" target="_ygPCdoVtNv-rxJqJa3W-6" edge="1">
          <mxGeometry width="160" relative="1" as="geometry">
            <mxPoint x="300" y="570" as="sourcePoint" />
            <mxPoint x="460" y="570" as="targetPoint" />
          </mxGeometry>
        </mxCell>
        <mxCell id="_ygPCdoVtNv-rxJqJa3W-39" value="JsonParser" style="swimlane;fontStyle=1;align=center;verticalAlign=top;childLayout=stackLayout;horizontal=1;startSize=26;horizontalStack=0;resizeParent=1;resizeParentMax=0;resizeLast=0;collapsible=1;marginBottom=0;whiteSpace=wrap;html=1;" parent="1" vertex="1">
          <mxGeometry x="710" y="1058" width="430" height="606" as="geometry" />
        </mxCell>
        <mxCell id="_ygPCdoVtNv-rxJqJa3W-40" value="- str : const string&amp;amp;" style="text;strokeColor=none;fillColor=none;align=left;verticalAlign=top;spacingLeft=4;spacingRight=4;overflow=hidden;rotatable=0;points=[[0,0.5],[1,0.5]];portConstraint=eastwest;whiteSpace=wrap;html=1;" parent="_ygPCdoVtNv-rxJqJa3W-39" vertex="1">
          <mxGeometry y="26" width="430" height="26" as="geometry" />
        </mxCell>
        <mxCell id="DcjB_DtGqzypuuOy7Dff-65" value="- i : size_t" style="text;strokeColor=none;fillColor=none;align=left;verticalAlign=top;spacingLeft=4;spacingRight=4;overflow=hidden;rotatable=0;points=[[0,0.5],[1,0.5]];portConstraint=eastwest;whiteSpace=wrap;html=1;" parent="_ygPCdoVtNv-rxJqJa3W-39" vertex="1">
          <mxGeometry y="52" width="430" height="26" as="geometry" />
        </mxCell>
        <mxCell id="DcjB_DtGqzypuuOy7Dff-66" value="- err : string&amp;amp;" style="text;strokeColor=none;fillColor=none;align=left;verticalAlign=top;spacingLeft=4;spacingRight=4;overflow=hidden;rotatable=0;points=[[0,0.5],[1,0.5]];portConstraint=eastwest;whiteSpace=wrap;html=1;" parent="_ygPCdoVtNv-rxJqJa3W-39" vertex="1">
          <mxGeometry y="78" width="430" height="26" as="geometry" />
        </mxCell>
        <mxCell id="DcjB_DtGqzypuuOy7Dff-67" value="- has_fail : bool" style="text;strokeColor=none;fillColor=none;align=left;verticalAlign=top;spacingLeft=4;spacingRight=4;overflow=hidden;rotatable=0;points=[[0,0.5],[1,0.5]];portConstraint=eastwest;whiteSpace=wrap;html=1;" parent="_ygPCdoVtNv-rxJqJa3W-39" vertex="1">
          <mxGeometry y="104" width="430" height="26" as="geometry" />
        </mxCell>
        <mxCell id="iD4TSVQBTH0m3GLCbqSj-29" value="- max_depth : const int" style="text;strokeColor=none;fillColor=none;align=left;verticalAlign=top;spacingLeft=4;spacingRight=4;overflow=hidden;rotatable=0;points=[[0,0.5],[1,0.5]];portConstraint=eastwest;whiteSpace=wrap;html=1;" vertex="1" parent="_ygPCdoVtNv-rxJqJa3W-39">
          <mxGeometry y="130" width="430" height="26" as="geometry" />
        </mxCell>
        <mxCell id="_ygPCdoVtNv-rxJqJa3W-41" value="" style="line;strokeWidth=1;fillColor=none;align=left;verticalAlign=middle;spacingTop=-1;spacingLeft=3;spacingRight=3;rotatable=0;labelPosition=right;points=[];portConstraint=eastwest;strokeColor=inherit;" parent="_ygPCdoVtNv-rxJqJa3W-39" vertex="1">
          <mxGeometry y="156" width="430" height="8" as="geometry" />
        </mxCell>
        <mxCell id="_ygPCdoVtNv-rxJqJa3W-42" value="- JsonParser(const string&amp;amp;, size_t, string&amp;amp;)" style="text;strokeColor=none;fillColor=none;align=left;verticalAlign=top;spacingLeft=4;spacingRight=4;overflow=hidden;rotatable=0;points=[[0,0.5],[1,0.5]];portConstraint=eastwest;whiteSpace=wrap;html=1;" parent="_ygPCdoVtNv-rxJqJa3W-39" vertex="1">
          <mxGeometry y="164" width="430" height="26" as="geometry" />
        </mxCell>
        <mxCell id="DcjB_DtGqzypuuOy7Dff-68" value="- JsonParser(const string&amp;amp;, string&amp;amp;)" style="text;strokeColor=none;fillColor=none;align=left;verticalAlign=top;spacingLeft=4;spacingRight=4;overflow=hidden;rotatable=0;points=[[0,0.5],[1,0.5]];portConstraint=eastwest;whiteSpace=wrap;html=1;" parent="_ygPCdoVtNv-rxJqJa3W-39" vertex="1">
          <mxGeometry y="190" width="430" height="26" as="geometry" />
        </mxCell>
        <mxCell id="iD4TSVQBTH0m3GLCbqSj-30" value="- FormatChar(char) : string" style="text;strokeColor=none;fillColor=none;align=left;verticalAlign=top;spacingLeft=4;spacingRight=4;overflow=hidden;rotatable=0;points=[[0,0.5],[1,0.5]];portConstraint=eastwest;whiteSpace=wrap;html=1;" vertex="1" parent="_ygPCdoVtNv-rxJqJa3W-39">
          <mxGeometry y="216" width="430" height="26" as="geometry" />
        </mxCell>
        <mxCell id="iD4TSVQBTH0m3GLCbqSj-31" value="- in_range(long, long, long) : bool" style="text;strokeColor=none;fillColor=none;align=left;verticalAlign=top;spacingLeft=4;spacingRight=4;overflow=hidden;rotatable=0;points=[[0,0.5],[1,0.5]];portConstraint=eastwest;whiteSpace=wrap;html=1;" vertex="1" parent="_ygPCdoVtNv-rxJqJa3W-39">
          <mxGeometry y="242" width="430" height="26" as="geometry" />
        </mxCell>
        <mxCell id="iD4TSVQBTH0m3GLCbqSj-32" value="- encode_utf8(long, string&amp;amp;)&amp;nbsp;" style="text;strokeColor=none;fillColor=none;align=left;verticalAlign=top;spacingLeft=4;spacingRight=4;overflow=hidden;rotatable=0;points=[[0,0.5],[1,0.5]];portConstraint=eastwest;whiteSpace=wrap;html=1;" vertex="1" parent="_ygPCdoVtNv-rxJqJa3W-39">
          <mxGeometry y="268" width="430" height="26" as="geometry" />
        </mxCell>
        <mxCell id="DcjB_DtGqzypuuOy7Dff-73" value="- fail&amp;lt;T&amp;gt;(string&amp;amp;&amp;amp;, const T) : T" style="text;strokeColor=none;fillColor=none;align=left;verticalAlign=top;spacingLeft=4;spacingRight=4;overflow=hidden;rotatable=0;points=[[0,0.5],[1,0.5]];portConstraint=eastwest;whiteSpace=wrap;html=1;" parent="_ygPCdoVtNv-rxJqJa3W-39" vertex="1">
          <mxGeometry y="294" width="430" height="26" as="geometry" />
        </mxCell>
        <mxCell id="DcjB_DtGqzypuuOy7Dff-72" value="- fail(string&amp;amp;&amp;amp;) : shared_ptr&amp;lt;JsonValue&amp;gt;" style="text;strokeColor=none;fillColor=none;align=left;verticalAlign=top;spacingLeft=4;spacingRight=4;overflow=hidden;rotatable=0;points=[[0,0.5],[1,0.5]];portConstraint=eastwest;whiteSpace=wrap;html=1;" parent="_ygPCdoVtNv-rxJqJa3W-39" vertex="1">
          <mxGeometry y="320" width="430" height="26" as="geometry" />
        </mxCell>
        <mxCell id="DcjB_DtGqzypuuOy7Dff-74" value="- consume_whitespace()" style="text;strokeColor=none;fillColor=none;align=left;verticalAlign=top;spacingLeft=4;spacingRight=4;overflow=hidden;rotatable=0;points=[[0,0.5],[1,0.5]];portConstraint=eastwest;whiteSpace=wrap;html=1;" parent="_ygPCdoVtNv-rxJqJa3W-39" vertex="1">
          <mxGeometry y="346" width="430" height="26" as="geometry" />
        </mxCell>
        <mxCell id="DcjB_DtGqzypuuOy7Dff-75" value="- consume_conment() : bool" style="text;strokeColor=none;fillColor=none;align=left;verticalAlign=top;spacingLeft=4;spacingRight=4;overflow=hidden;rotatable=0;points=[[0,0.5],[1,0.5]];portConstraint=eastwest;whiteSpace=wrap;html=1;" parent="_ygPCdoVtNv-rxJqJa3W-39" vertex="1">
          <mxGeometry y="372" width="430" height="26" as="geometry" />
        </mxCell>
        <mxCell id="DcjB_DtGqzypuuOy7Dff-76" value="- consume_garbge()" style="text;strokeColor=none;fillColor=none;align=left;verticalAlign=top;spacingLeft=4;spacingRight=4;overflow=hidden;rotatable=0;points=[[0,0.5],[1,0.5]];portConstraint=eastwest;whiteSpace=wrap;html=1;" parent="_ygPCdoVtNv-rxJqJa3W-39" vertex="1">
          <mxGeometry y="398" width="430" height="26" as="geometry" />
        </mxCell>
        <mxCell id="DcjB_DtGqzypuuOy7Dff-77" value="- get_next_token() : char" style="text;strokeColor=none;fillColor=none;align=left;verticalAlign=top;spacingLeft=4;spacingRight=4;overflow=hidden;rotatable=0;points=[[0,0.5],[1,0.5]];portConstraint=eastwest;whiteSpace=wrap;html=1;" parent="_ygPCdoVtNv-rxJqJa3W-39" vertex="1">
          <mxGeometry y="424" width="430" height="26" as="geometry" />
        </mxCell>
        <mxCell id="DcjB_DtGqzypuuOy7Dff-78" value="- expect(const string&amp;amp;, shared_ptr&amp;lt;JsonValue&amp;gt;) : shared_ptr&amp;lt;JsonValue&amp;gt;" style="text;strokeColor=none;fillColor=none;align=left;verticalAlign=top;spacingLeft=4;spacingRight=4;overflow=hidden;rotatable=0;points=[[0,0.5],[1,0.5]];portConstraint=eastwest;whiteSpace=wrap;html=1;" parent="_ygPCdoVtNv-rxJqJa3W-39" vertex="1">
          <mxGeometry y="450" width="430" height="26" as="geometry" />
        </mxCell>
        <mxCell id="DcjB_DtGqzypuuOy7Dff-80" value="- parse_number() : shared_ptr&amp;lt;JsonValue&amp;gt;" style="text;strokeColor=none;fillColor=none;align=left;verticalAlign=top;spacingLeft=4;spacingRight=4;overflow=hidden;rotatable=0;points=[[0,0.5],[1,0.5]];portConstraint=eastwest;whiteSpace=wrap;html=1;" parent="_ygPCdoVtNv-rxJqJa3W-39" vertex="1">
          <mxGeometry y="476" width="430" height="26" as="geometry" />
        </mxCell>
        <mxCell id="DcjB_DtGqzypuuOy7Dff-81" value="- parse_string() : string" style="text;strokeColor=none;fillColor=none;align=left;verticalAlign=top;spacingLeft=4;spacingRight=4;overflow=hidden;rotatable=0;points=[[0,0.5],[1,0.5]];portConstraint=eastwest;whiteSpace=wrap;html=1;" parent="_ygPCdoVtNv-rxJqJa3W-39" vertex="1">
          <mxGeometry y="502" width="430" height="26" as="geometry" />
        </mxCell>
        <mxCell id="DcjB_DtGqzypuuOy7Dff-82" value="- parse_json(int) : shared_ptr&amp;lt;JsonValue&amp;gt;" style="text;strokeColor=none;fillColor=none;align=left;verticalAlign=top;spacingLeft=4;spacingRight=4;overflow=hidden;rotatable=0;points=[[0,0.5],[1,0.5]];portConstraint=eastwest;whiteSpace=wrap;html=1;" parent="_ygPCdoVtNv-rxJqJa3W-39" vertex="1">
          <mxGeometry y="528" width="430" height="26" as="geometry" />
        </mxCell>
        <mxCell id="iD4TSVQBTH0m3GLCbqSj-33" value="+ parse() : shared_ptr&amp;lt;JsonValue&amp;gt;" style="text;strokeColor=none;fillColor=none;align=left;verticalAlign=top;spacingLeft=4;spacingRight=4;overflow=hidden;rotatable=0;points=[[0,0.5],[1,0.5]];portConstraint=eastwest;whiteSpace=wrap;html=1;" vertex="1" parent="_ygPCdoVtNv-rxJqJa3W-39">
          <mxGeometry y="554" width="430" height="26" as="geometry" />
        </mxCell>
        <mxCell id="iD4TSVQBTH0m3GLCbqSj-34" value="+ parse_multi() : vector&amp;lt; shared_ptr&amp;lt;JsonValue&amp;gt; &amp;gt;" style="text;strokeColor=none;fillColor=none;align=left;verticalAlign=top;spacingLeft=4;spacingRight=4;overflow=hidden;rotatable=0;points=[[0,0.5],[1,0.5]];portConstraint=eastwest;whiteSpace=wrap;html=1;" vertex="1" parent="_ygPCdoVtNv-rxJqJa3W-39">
          <mxGeometry y="580" width="430" height="26" as="geometry" />
        </mxCell>
        <mxCell id="_ygPCdoVtNv-rxJqJa3W-43" value="Use" style="endArrow=open;endSize=12;dashed=1;html=1;rounded=0;" parent="1" source="_ygPCdoVtNv-rxJqJa3W-2" target="_ygPCdoVtNv-rxJqJa3W-39" edge="1">
          <mxGeometry width="160" relative="1" as="geometry">
            <mxPoint x="810" y="370" as="sourcePoint" />
            <mxPoint x="970" y="370" as="targetPoint" />
          </mxGeometry>
        </mxCell>
        <mxCell id="EOcM46U7qM_WBphXN8B7-1" value="" style="swimlane;fontStyle=0;childLayout=stackLayout;horizontal=1;startSize=26;fillColor=none;horizontalStack=0;resizeParent=1;resizeParentMax=0;resizeLast=0;collapsible=1;marginBottom=0;whiteSpace=wrap;html=1;" parent="1" vertex="1">
          <mxGeometry x="-232" y="190" width="462" height="182" as="geometry" />
        </mxCell>
        <mxCell id="EOcM46U7qM_WBphXN8B7-2" value="&lt;u&gt;+ static const std::shared_ptr&amp;lt;JsonValue&amp;gt; default_null = make_shared();&lt;/u&gt;" style="text;strokeColor=none;fillColor=none;align=left;verticalAlign=top;spacingLeft=4;spacingRight=4;overflow=hidden;rotatable=0;points=[[0,0.5],[1,0.5]];portConstraint=eastwest;whiteSpace=wrap;html=1;" parent="EOcM46U7qM_WBphXN8B7-1" vertex="1">
          <mxGeometry y="26" width="462" height="26" as="geometry" />
        </mxCell>
        <mxCell id="EOcM46U7qM_WBphXN8B7-3" value="&lt;u&gt;+ static const std::shared_ptr&amp;lt;JsonValue&amp;gt; default_true = make_shared(true);&lt;/u&gt;" style="text;strokeColor=none;fillColor=none;align=left;verticalAlign=top;spacingLeft=4;spacingRight=4;overflow=hidden;rotatable=0;points=[[0,0.5],[1,0.5]];portConstraint=eastwest;whiteSpace=wrap;html=1;" parent="EOcM46U7qM_WBphXN8B7-1" vertex="1">
          <mxGeometry y="52" width="462" height="26" as="geometry" />
        </mxCell>
        <mxCell id="q7ibFokGOSPtYrDXfRHr-57" value="&lt;u&gt;+ stiatic const std::shared_ptr&amp;lt;JsonValue&amp;gt; default_false = make_shared(false);&lt;/u&gt;" style="text;strokeColor=none;fillColor=none;align=left;verticalAlign=top;spacingLeft=4;spacingRight=4;overflow=hidden;rotatable=0;points=[[0,0.5],[1,0.5]];portConstraint=eastwest;whiteSpace=wrap;html=1;" parent="EOcM46U7qM_WBphXN8B7-1" vertex="1">
          <mxGeometry y="78" width="462" height="26" as="geometry" />
        </mxCell>
        <mxCell id="q7ibFokGOSPtYrDXfRHr-58" value="&lt;u&gt;+ static const string default_string;&lt;/u&gt;" style="text;strokeColor=none;fillColor=none;align=left;verticalAlign=top;spacingLeft=4;spacingRight=4;overflow=hidden;rotatable=0;points=[[0,0.5],[1,0.5]];portConstraint=eastwest;whiteSpace=wrap;html=1;" parent="EOcM46U7qM_WBphXN8B7-1" vertex="1">
          <mxGeometry y="104" width="462" height="26" as="geometry" />
        </mxCell>
        <mxCell id="q7ibFokGOSPtYrDXfRHr-60" value="&lt;u&gt;+ static const JsonArray default_array;&lt;/u&gt;" style="text;strokeColor=none;fillColor=none;align=left;verticalAlign=top;spacingLeft=4;spacingRight=4;overflow=hidden;rotatable=0;points=[[0,0.5],[1,0.5]];portConstraint=eastwest;whiteSpace=wrap;html=1;" parent="EOcM46U7qM_WBphXN8B7-1" vertex="1">
          <mxGeometry y="130" width="462" height="26" as="geometry" />
        </mxCell>
        <mxCell id="q7ibFokGOSPtYrDXfRHr-59" value="&lt;u&gt;+ static const JsonObject default_object;&lt;/u&gt;" style="text;strokeColor=none;fillColor=none;align=left;verticalAlign=top;spacingLeft=4;spacingRight=4;overflow=hidden;rotatable=0;points=[[0,0.5],[1,0.5]];portConstraint=eastwest;whiteSpace=wrap;html=1;" parent="EOcM46U7qM_WBphXN8B7-1" vertex="1">
          <mxGeometry y="156" width="462" height="26" as="geometry" />
        </mxCell>
        <mxCell id="EOcM46U7qM_WBphXN8B7-5" value="use" style="endArrow=open;endSize=12;dashed=1;html=1;rounded=0;" parent="1" source="_ygPCdoVtNv-rxJqJa3W-6" target="EOcM46U7qM_WBphXN8B7-1" edge="1">
          <mxGeometry width="160" relative="1" as="geometry">
            <mxPoint x="230" y="440" as="sourcePoint" />
            <mxPoint x="390" y="440" as="targetPoint" />
          </mxGeometry>
        </mxCell>
        <mxCell id="q7ibFokGOSPtYrDXfRHr-51" value="&amp;lt;Type::OBJECT, JsonObject&amp;gt;" style="endArrow=block;endSize=16;endFill=0;html=1;rounded=0;exitX=0;exitY=0;exitDx=0;exitDy=0;" parent="1" source="q7ibFokGOSPtYrDXfRHr-37" target="_ygPCdoVtNv-rxJqJa3W-26" edge="1">
          <mxGeometry width="160" relative="1" as="geometry">
            <mxPoint x="680" y="360" as="sourcePoint" />
            <mxPoint x="840" y="360" as="targetPoint" />
          </mxGeometry>
        </mxCell>
        <mxCell id="q7ibFokGOSPtYrDXfRHr-52" value="&amp;lt;Type::STRING, string&amp;gt;" style="endArrow=block;endSize=16;endFill=0;html=1;rounded=0;exitX=0;exitY=0;exitDx=0;exitDy=0;" parent="1" source="q7ibFokGOSPtYrDXfRHr-29" target="_ygPCdoVtNv-rxJqJa3W-26" edge="1">
          <mxGeometry width="160" relative="1" as="geometry">
            <mxPoint x="870" y="130" as="sourcePoint" />
            <mxPoint x="840" y="360" as="targetPoint" />
          </mxGeometry>
        </mxCell>
        <mxCell id="q7ibFokGOSPtYrDXfRHr-53" value="&amp;lt;Type::ARRAY, JsonArray&amp;gt;" style="endArrow=block;endSize=16;endFill=0;html=1;rounded=0;exitX=0;exitY=0;exitDx=0;exitDy=0;" parent="1" source="q7ibFokGOSPtYrDXfRHr-33" target="_ygPCdoVtNv-rxJqJa3W-26" edge="1">
          <mxGeometry width="160" relative="1" as="geometry">
            <mxPoint x="680" y="360" as="sourcePoint" />
            <mxPoint x="840" y="360" as="targetPoint" />
          </mxGeometry>
        </mxCell>
        <mxCell id="q7ibFokGOSPtYrDXfRHr-62" value="&amp;nbsp;enum Type" style="swimlane;fontStyle=0;childLayout=stackLayout;horizontal=1;startSize=26;fillColor=none;horizontalStack=0;resizeParent=1;resizeParentMax=0;resizeLast=0;collapsible=1;marginBottom=0;whiteSpace=wrap;html=1;" parent="1" vertex="1">
          <mxGeometry x="200" y="-430" width="140" height="182" as="geometry" />
        </mxCell>
        <mxCell id="q7ibFokGOSPtYrDXfRHr-63" value="+ NUL" style="text;strokeColor=none;fillColor=none;align=left;verticalAlign=top;spacingLeft=4;spacingRight=4;overflow=hidden;rotatable=0;points=[[0,0.5],[1,0.5]];portConstraint=eastwest;whiteSpace=wrap;html=1;" parent="q7ibFokGOSPtYrDXfRHr-62" vertex="1">
          <mxGeometry y="26" width="140" height="26" as="geometry" />
        </mxCell>
        <mxCell id="q7ibFokGOSPtYrDXfRHr-64" value="+ NUMBER" style="text;strokeColor=none;fillColor=none;align=left;verticalAlign=top;spacingLeft=4;spacingRight=4;overflow=hidden;rotatable=0;points=[[0,0.5],[1,0.5]];portConstraint=eastwest;whiteSpace=wrap;html=1;" parent="q7ibFokGOSPtYrDXfRHr-62" vertex="1">
          <mxGeometry y="52" width="140" height="26" as="geometry" />
        </mxCell>
        <mxCell id="q7ibFokGOSPtYrDXfRHr-65" value="+ BOOL" style="text;strokeColor=none;fillColor=none;align=left;verticalAlign=top;spacingLeft=4;spacingRight=4;overflow=hidden;rotatable=0;points=[[0,0.5],[1,0.5]];portConstraint=eastwest;whiteSpace=wrap;html=1;" parent="q7ibFokGOSPtYrDXfRHr-62" vertex="1">
          <mxGeometry y="78" width="140" height="26" as="geometry" />
        </mxCell>
        <mxCell id="q7ibFokGOSPtYrDXfRHr-66" value="+ STRING" style="text;strokeColor=none;fillColor=none;align=left;verticalAlign=top;spacingLeft=4;spacingRight=4;overflow=hidden;rotatable=0;points=[[0,0.5],[1,0.5]];portConstraint=eastwest;whiteSpace=wrap;html=1;" parent="q7ibFokGOSPtYrDXfRHr-62" vertex="1">
          <mxGeometry y="104" width="140" height="26" as="geometry" />
        </mxCell>
        <mxCell id="q7ibFokGOSPtYrDXfRHr-67" value="+ ARRAY" style="text;strokeColor=none;fillColor=none;align=left;verticalAlign=top;spacingLeft=4;spacingRight=4;overflow=hidden;rotatable=0;points=[[0,0.5],[1,0.5]];portConstraint=eastwest;whiteSpace=wrap;html=1;" parent="q7ibFokGOSPtYrDXfRHr-62" vertex="1">
          <mxGeometry y="130" width="140" height="26" as="geometry" />
        </mxCell>
        <mxCell id="q7ibFokGOSPtYrDXfRHr-68" value="+ OBJECT" style="text;strokeColor=none;fillColor=none;align=left;verticalAlign=top;spacingLeft=4;spacingRight=4;overflow=hidden;rotatable=0;points=[[0,0.5],[1,0.5]];portConstraint=eastwest;whiteSpace=wrap;html=1;" parent="q7ibFokGOSPtYrDXfRHr-62" vertex="1">
          <mxGeometry y="156" width="140" height="26" as="geometry" />
        </mxCell>
        <mxCell id="iD4TSVQBTH0m3GLCbqSj-4" value="NullStruct" style="swimlane;fontStyle=1;align=center;verticalAlign=top;childLayout=stackLayout;horizontal=1;startSize=26;horizontalStack=0;resizeParent=1;resizeParentMax=0;resizeLast=0;collapsible=1;marginBottom=0;whiteSpace=wrap;html=1;" vertex="1" parent="1">
          <mxGeometry x="-180" y="-430" width="229" height="86" as="geometry" />
        </mxCell>
        <mxCell id="iD4TSVQBTH0m3GLCbqSj-6" value="" style="line;strokeWidth=1;fillColor=none;align=left;verticalAlign=middle;spacingTop=-1;spacingLeft=3;spacingRight=3;rotatable=0;labelPosition=right;points=[];portConstraint=eastwest;strokeColor=inherit;" vertex="1" parent="iD4TSVQBTH0m3GLCbqSj-4">
          <mxGeometry y="26" width="229" height="8" as="geometry" />
        </mxCell>
        <mxCell id="iD4TSVQBTH0m3GLCbqSj-7" value="+ operator== (NullStruct) cnost : bool" style="text;strokeColor=none;fillColor=none;align=left;verticalAlign=top;spacingLeft=4;spacingRight=4;overflow=hidden;rotatable=0;points=[[0,0.5],[1,0.5]];portConstraint=eastwest;whiteSpace=wrap;html=1;" vertex="1" parent="iD4TSVQBTH0m3GLCbqSj-4">
          <mxGeometry y="34" width="229" height="26" as="geometry" />
        </mxCell>
        <mxCell id="iD4TSVQBTH0m3GLCbqSj-8" value="+ operator&amp;lt; (Nullstruct) const : bool" style="text;strokeColor=none;fillColor=none;align=left;verticalAlign=top;spacingLeft=4;spacingRight=4;overflow=hidden;rotatable=0;points=[[0,0.5],[1,0.5]];portConstraint=eastwest;whiteSpace=wrap;html=1;" vertex="1" parent="iD4TSVQBTH0m3GLCbqSj-4">
          <mxGeometry y="60" width="229" height="26" as="geometry" />
        </mxCell>
        <mxCell id="iD4TSVQBTH0m3GLCbqSj-14" value="" style="group" vertex="1" connectable="0" parent="1">
          <mxGeometry x="-180" y="-310" width="329" height="154" as="geometry" />
        </mxCell>
        <mxCell id="DcjB_DtGqzypuuOy7Dff-127" value="" style="group" parent="iD4TSVQBTH0m3GLCbqSj-14" vertex="1" connectable="0">
          <mxGeometry width="329" height="102" as="geometry" />
        </mxCell>
        <mxCell id="q7ibFokGOSPtYrDXfRHr-93" value="typedef JsonObject" style="swimlane;fontStyle=1;align=center;verticalAlign=top;childLayout=stackLayout;horizontal=1;startSize=26;horizontalStack=0;resizeParent=1;resizeParentMax=0;resizeLast=0;collapsible=1;marginBottom=0;whiteSpace=wrap;html=1;" parent="DcjB_DtGqzypuuOy7Dff-127" vertex="1">
          <mxGeometry y="-2" width="329" height="52" as="geometry" />
        </mxCell>
        <mxCell id="q7ibFokGOSPtYrDXfRHr-94" value="using JsonObject = map&amp;lt; string, shared_ptr&amp;lt;JsonValue&amp;gt; &amp;gt;" style="text;strokeColor=none;fillColor=none;align=left;verticalAlign=top;spacingLeft=4;spacingRight=4;overflow=hidden;rotatable=0;points=[[0,0.5],[1,0.5]];portConstraint=eastwest;whiteSpace=wrap;html=1;" parent="q7ibFokGOSPtYrDXfRHr-93" vertex="1">
          <mxGeometry y="26" width="329" height="26" as="geometry" />
        </mxCell>
        <mxCell id="q7ibFokGOSPtYrDXfRHr-98" value="typedef JsonArray" style="swimlane;fontStyle=1;align=center;verticalAlign=top;childLayout=stackLayout;horizontal=1;startSize=26;horizontalStack=0;resizeParent=1;resizeParentMax=0;resizeLast=0;collapsible=1;marginBottom=0;whiteSpace=wrap;html=1;" parent="DcjB_DtGqzypuuOy7Dff-127" vertex="1">
          <mxGeometry y="50" width="329" height="52" as="geometry" />
        </mxCell>
        <mxCell id="q7ibFokGOSPtYrDXfRHr-99" value="using JsonArray = vector&amp;lt; shared_ptr&amp;lt;JsonValue&amp;gt; &amp;gt;" style="text;strokeColor=none;fillColor=none;align=left;verticalAlign=top;spacingLeft=4;spacingRight=4;overflow=hidden;rotatable=0;points=[[0,0.5],[1,0.5]];portConstraint=eastwest;whiteSpace=wrap;html=1;" parent="q7ibFokGOSPtYrDXfRHr-98" vertex="1">
          <mxGeometry y="26" width="329" height="26" as="geometry" />
        </mxCell>
        <mxCell id="iD4TSVQBTH0m3GLCbqSj-9" value="typedef shape" style="swimlane;fontStyle=1;align=center;verticalAlign=top;childLayout=stackLayout;horizontal=1;startSize=26;horizontalStack=0;resizeParent=1;resizeParentMax=0;resizeLast=0;collapsible=1;marginBottom=0;whiteSpace=wrap;html=1;" vertex="1" parent="iD4TSVQBTH0m3GLCbqSj-14">
          <mxGeometry y="102" width="329" height="52" as="geometry" />
        </mxCell>
        <mxCell id="iD4TSVQBTH0m3GLCbqSj-10" value="using shape = initializer_list&amp;lt; pair&amp;lt; string, JsonType &amp;gt; &amp;gt;" style="text;strokeColor=none;fillColor=none;align=left;verticalAlign=top;spacingLeft=4;spacingRight=4;overflow=hidden;rotatable=0;points=[[0,0.5],[1,0.5]];portConstraint=eastwest;whiteSpace=wrap;html=1;" vertex="1" parent="iD4TSVQBTH0m3GLCbqSj-9">
          <mxGeometry y="26" width="329" height="26" as="geometry" />
        </mxCell>
        <mxCell id="iD4TSVQBTH0m3GLCbqSj-26" value="" style="group" vertex="1" connectable="0" parent="1">
          <mxGeometry x="827" y="-370" width="373" height="876" as="geometry" />
        </mxCell>
        <mxCell id="_ygPCdoVtNv-rxJqJa3W-10" value="NullValue" style="swimlane;fontStyle=1;align=center;verticalAlign=top;childLayout=stackLayout;horizontal=1;startSize=26;horizontalStack=0;resizeParent=1;resizeParentMax=0;resizeLast=0;collapsible=1;marginBottom=0;whiteSpace=wrap;html=1;" parent="iD4TSVQBTH0m3GLCbqSj-26" vertex="1">
          <mxGeometry width="373" height="86" as="geometry">
            <mxRectangle width="90" height="30" as="alternateBounds" />
          </mxGeometry>
        </mxCell>
        <mxCell id="_ygPCdoVtNv-rxJqJa3W-12" value="" style="line;strokeWidth=1;fillColor=none;align=left;verticalAlign=middle;spacingTop=-1;spacingLeft=3;spacingRight=3;rotatable=0;labelPosition=right;points=[];portConstraint=eastwest;strokeColor=inherit;" parent="_ygPCdoVtNv-rxJqJa3W-10" vertex="1">
          <mxGeometry y="26" width="373" height="8" as="geometry" />
        </mxCell>
        <mxCell id="_ygPCdoVtNv-rxJqJa3W-13" value="+ NullValue()" style="text;strokeColor=none;fillColor=none;align=left;verticalAlign=top;spacingLeft=4;spacingRight=4;overflow=hidden;rotatable=0;points=[[0,0.5],[1,0.5]];portConstraint=eastwest;whiteSpace=wrap;html=1;" parent="_ygPCdoVtNv-rxJqJa3W-10" vertex="1">
          <mxGeometry y="34" width="373" height="26" as="geometry" />
        </mxCell>
        <mxCell id="iD4TSVQBTH0m3GLCbqSj-16" value="+ dump(string&amp;amp;) const" style="text;strokeColor=none;fillColor=none;align=left;verticalAlign=top;spacingLeft=4;spacingRight=4;overflow=hidden;rotatable=0;points=[[0,0.5],[1,0.5]];portConstraint=eastwest;whiteSpace=wrap;html=1;" vertex="1" parent="_ygPCdoVtNv-rxJqJa3W-10">
          <mxGeometry y="60" width="373" height="26" as="geometry" />
        </mxCell>
        <mxCell id="_ygPCdoVtNv-rxJqJa3W-14" value="BooleanValue" style="swimlane;fontStyle=1;align=center;verticalAlign=top;childLayout=stackLayout;horizontal=1;startSize=26;horizontalStack=0;resizeParent=1;resizeParentMax=0;resizeLast=0;collapsible=1;marginBottom=0;whiteSpace=wrap;html=1;" parent="iD4TSVQBTH0m3GLCbqSj-26" vertex="1">
          <mxGeometry y="86" width="373" height="112" as="geometry">
            <mxRectangle y="60" width="120" height="30" as="alternateBounds" />
          </mxGeometry>
        </mxCell>
        <mxCell id="_ygPCdoVtNv-rxJqJa3W-16" value="" style="line;strokeWidth=1;fillColor=none;align=left;verticalAlign=middle;spacingTop=-1;spacingLeft=3;spacingRight=3;rotatable=0;labelPosition=right;points=[];portConstraint=eastwest;strokeColor=inherit;" parent="_ygPCdoVtNv-rxJqJa3W-14" vertex="1">
          <mxGeometry y="26" width="373" height="8" as="geometry" />
        </mxCell>
        <mxCell id="_ygPCdoVtNv-rxJqJa3W-17" value="+ BooleanValue()" style="text;strokeColor=none;fillColor=none;align=left;verticalAlign=top;spacingLeft=4;spacingRight=4;overflow=hidden;rotatable=0;points=[[0,0.5],[1,0.5]];portConstraint=eastwest;whiteSpace=wrap;html=1;" parent="_ygPCdoVtNv-rxJqJa3W-14" vertex="1">
          <mxGeometry y="34" width="373" height="26" as="geometry" />
        </mxCell>
        <mxCell id="q7ibFokGOSPtYrDXfRHr-12" value="-&amp;nbsp; bool_value() const : bool" style="text;strokeColor=none;fillColor=none;align=left;verticalAlign=top;spacingLeft=4;spacingRight=4;overflow=hidden;rotatable=0;points=[[0,0.5],[1,0.5]];portConstraint=eastwest;whiteSpace=wrap;html=1;" parent="_ygPCdoVtNv-rxJqJa3W-14" vertex="1">
          <mxGeometry y="60" width="373" height="26" as="geometry" />
        </mxCell>
        <mxCell id="iD4TSVQBTH0m3GLCbqSj-17" value="+ dump(string&amp;amp;)&amp;nbsp; const" style="text;strokeColor=none;fillColor=none;align=left;verticalAlign=top;spacingLeft=4;spacingRight=4;overflow=hidden;rotatable=0;points=[[0,0.5],[1,0.5]];portConstraint=eastwest;whiteSpace=wrap;html=1;" vertex="1" parent="_ygPCdoVtNv-rxJqJa3W-14">
          <mxGeometry y="86" width="373" height="26" as="geometry" />
        </mxCell>
        <mxCell id="_ygPCdoVtNv-rxJqJa3W-22" value="NumberValue" style="swimlane;fontStyle=1;align=center;verticalAlign=top;childLayout=stackLayout;horizontal=1;startSize=26;horizontalStack=0;resizeParent=1;resizeParentMax=0;resizeLast=0;collapsible=1;marginBottom=0;whiteSpace=wrap;html=1;" parent="iD4TSVQBTH0m3GLCbqSj-26" vertex="1">
          <mxGeometry y="194" width="373" height="216" as="geometry" />
        </mxCell>
        <mxCell id="_ygPCdoVtNv-rxJqJa3W-24" value="" style="line;strokeWidth=1;fillColor=none;align=left;verticalAlign=middle;spacingTop=-1;spacingLeft=3;spacingRight=3;rotatable=0;labelPosition=right;points=[];portConstraint=eastwest;strokeColor=inherit;" parent="_ygPCdoVtNv-rxJqJa3W-22" vertex="1">
          <mxGeometry y="26" width="373" height="8" as="geometry" />
        </mxCell>
        <mxCell id="_ygPCdoVtNv-rxJqJa3W-25" value="+ NumberValue(int)" style="text;strokeColor=none;fillColor=none;align=left;verticalAlign=top;spacingLeft=4;spacingRight=4;overflow=hidden;rotatable=0;points=[[0,0.5],[1,0.5]];portConstraint=eastwest;whiteSpace=wrap;html=1;" parent="_ygPCdoVtNv-rxJqJa3W-22" vertex="1">
          <mxGeometry y="34" width="373" height="26" as="geometry" />
        </mxCell>
        <mxCell id="q7ibFokGOSPtYrDXfRHr-13" value="+ NumberValue(double)" style="text;strokeColor=none;fillColor=none;align=left;verticalAlign=top;spacingLeft=4;spacingRight=4;overflow=hidden;rotatable=0;points=[[0,0.5],[1,0.5]];portConstraint=eastwest;whiteSpace=wrap;html=1;" parent="_ygPCdoVtNv-rxJqJa3W-22" vertex="1">
          <mxGeometry y="60" width="373" height="26" as="geometry" />
        </mxCell>
        <mxCell id="q7ibFokGOSPtYrDXfRHr-14" value="+ number_value() const : double" style="text;strokeColor=none;fillColor=none;align=left;verticalAlign=top;spacingLeft=4;spacingRight=4;overflow=hidden;rotatable=0;points=[[0,0.5],[1,0.5]];portConstraint=eastwest;whiteSpace=wrap;html=1;" parent="_ygPCdoVtNv-rxJqJa3W-22" vertex="1">
          <mxGeometry y="86" width="373" height="26" as="geometry" />
        </mxCell>
        <mxCell id="q7ibFokGOSPtYrDXfRHr-15" value="+ int_value() const : int" style="text;strokeColor=none;fillColor=none;align=left;verticalAlign=top;spacingLeft=4;spacingRight=4;overflow=hidden;rotatable=0;points=[[0,0.5],[1,0.5]];portConstraint=eastwest;whiteSpace=wrap;html=1;" parent="_ygPCdoVtNv-rxJqJa3W-22" vertex="1">
          <mxGeometry y="112" width="373" height="26" as="geometry" />
        </mxCell>
        <mxCell id="iD4TSVQBTH0m3GLCbqSj-18" value="+ equals(const JsonValue*) const : bool" style="text;strokeColor=none;fillColor=none;align=left;verticalAlign=top;spacingLeft=4;spacingRight=4;overflow=hidden;rotatable=0;points=[[0,0.5],[1,0.5]];portConstraint=eastwest;whiteSpace=wrap;html=1;" vertex="1" parent="_ygPCdoVtNv-rxJqJa3W-22">
          <mxGeometry y="138" width="373" height="26" as="geometry" />
        </mxCell>
        <mxCell id="iD4TSVQBTH0m3GLCbqSj-19" value="+ less(const JsonValue*) const : bool" style="text;strokeColor=none;fillColor=none;align=left;verticalAlign=top;spacingLeft=4;spacingRight=4;overflow=hidden;rotatable=0;points=[[0,0.5],[1,0.5]];portConstraint=eastwest;whiteSpace=wrap;html=1;" vertex="1" parent="_ygPCdoVtNv-rxJqJa3W-22">
          <mxGeometry y="164" width="373" height="26" as="geometry" />
        </mxCell>
        <mxCell id="iD4TSVQBTH0m3GLCbqSj-20" value="+ dump(string&amp;amp;) const" style="text;strokeColor=none;fillColor=none;align=left;verticalAlign=top;spacingLeft=4;spacingRight=4;overflow=hidden;rotatable=0;points=[[0,0.5],[1,0.5]];portConstraint=eastwest;whiteSpace=wrap;html=1;" vertex="1" parent="_ygPCdoVtNv-rxJqJa3W-22">
          <mxGeometry y="190" width="373" height="26" as="geometry" />
        </mxCell>
        <mxCell id="q7ibFokGOSPtYrDXfRHr-29" value="StringValue" style="swimlane;fontStyle=1;align=center;verticalAlign=top;childLayout=stackLayout;horizontal=1;startSize=26;horizontalStack=0;resizeParent=1;resizeParentMax=0;resizeLast=0;collapsible=1;marginBottom=0;whiteSpace=wrap;html=1;" parent="iD4TSVQBTH0m3GLCbqSj-26" vertex="1">
          <mxGeometry y="410" width="373" height="138" as="geometry" />
        </mxCell>
        <mxCell id="q7ibFokGOSPtYrDXfRHr-31" value="" style="line;strokeWidth=1;fillColor=none;align=left;verticalAlign=middle;spacingTop=-1;spacingLeft=3;spacingRight=3;rotatable=0;labelPosition=right;points=[];portConstraint=eastwest;strokeColor=inherit;" parent="q7ibFokGOSPtYrDXfRHr-29" vertex="1">
          <mxGeometry y="26" width="373" height="8" as="geometry" />
        </mxCell>
        <mxCell id="q7ibFokGOSPtYrDXfRHr-32" value="+ StringValue(const string&amp;amp;)" style="text;strokeColor=none;fillColor=none;align=left;verticalAlign=top;spacingLeft=4;spacingRight=4;overflow=hidden;rotatable=0;points=[[0,0.5],[1,0.5]];portConstraint=eastwest;whiteSpace=wrap;html=1;" parent="q7ibFokGOSPtYrDXfRHr-29" vertex="1">
          <mxGeometry y="34" width="373" height="26" as="geometry" />
        </mxCell>
        <mxCell id="q7ibFokGOSPtYrDXfRHr-41" value="+ StringValue(string&amp;amp;&amp;amp;)" style="text;strokeColor=none;fillColor=none;align=left;verticalAlign=top;spacingLeft=4;spacingRight=4;overflow=hidden;rotatable=0;points=[[0,0.5],[1,0.5]];portConstraint=eastwest;whiteSpace=wrap;html=1;" parent="q7ibFokGOSPtYrDXfRHr-29" vertex="1">
          <mxGeometry y="60" width="373" height="26" as="geometry" />
        </mxCell>
        <mxCell id="q7ibFokGOSPtYrDXfRHr-42" value="+ string_value() const : const string&amp;amp;" style="text;strokeColor=none;fillColor=none;align=left;verticalAlign=top;spacingLeft=4;spacingRight=4;overflow=hidden;rotatable=0;points=[[0,0.5],[1,0.5]];portConstraint=eastwest;whiteSpace=wrap;html=1;" parent="q7ibFokGOSPtYrDXfRHr-29" vertex="1">
          <mxGeometry y="86" width="373" height="26" as="geometry" />
        </mxCell>
        <mxCell id="iD4TSVQBTH0m3GLCbqSj-22" value="+ dump(string&amp;amp;) const" style="text;strokeColor=none;fillColor=none;align=left;verticalAlign=top;spacingLeft=4;spacingRight=4;overflow=hidden;rotatable=0;points=[[0,0.5],[1,0.5]];portConstraint=eastwest;whiteSpace=wrap;html=1;" vertex="1" parent="q7ibFokGOSPtYrDXfRHr-29">
          <mxGeometry y="112" width="373" height="26" as="geometry" />
        </mxCell>
        <mxCell id="q7ibFokGOSPtYrDXfRHr-33" value="ArrayValue" style="swimlane;fontStyle=1;align=center;verticalAlign=top;childLayout=stackLayout;horizontal=1;startSize=26;horizontalStack=0;resizeParent=1;resizeParentMax=0;resizeLast=0;collapsible=1;marginBottom=0;whiteSpace=wrap;html=1;" parent="iD4TSVQBTH0m3GLCbqSj-26" vertex="1">
          <mxGeometry y="548" width="373" height="164" as="geometry" />
        </mxCell>
        <mxCell id="q7ibFokGOSPtYrDXfRHr-35" value="" style="line;strokeWidth=1;fillColor=none;align=left;verticalAlign=middle;spacingTop=-1;spacingLeft=3;spacingRight=3;rotatable=0;labelPosition=right;points=[];portConstraint=eastwest;strokeColor=inherit;" parent="q7ibFokGOSPtYrDXfRHr-33" vertex="1">
          <mxGeometry y="26" width="373" height="8" as="geometry" />
        </mxCell>
        <mxCell id="q7ibFokGOSPtYrDXfRHr-36" value="+ ArrayValue(const JsonArray&amp;amp;)" style="text;strokeColor=none;fillColor=none;align=left;verticalAlign=top;spacingLeft=4;spacingRight=4;overflow=hidden;rotatable=0;points=[[0,0.5],[1,0.5]];portConstraint=eastwest;whiteSpace=wrap;html=1;" parent="q7ibFokGOSPtYrDXfRHr-33" vertex="1">
          <mxGeometry y="34" width="373" height="26" as="geometry" />
        </mxCell>
        <mxCell id="q7ibFokGOSPtYrDXfRHr-43" value="+ ArrayValue(JsonArray&amp;amp;&amp;amp;)" style="text;strokeColor=none;fillColor=none;align=left;verticalAlign=top;spacingLeft=4;spacingRight=4;overflow=hidden;rotatable=0;points=[[0,0.5],[1,0.5]];portConstraint=eastwest;whiteSpace=wrap;html=1;" parent="q7ibFokGOSPtYrDXfRHr-33" vertex="1">
          <mxGeometry y="60" width="373" height="26" as="geometry" />
        </mxCell>
        <mxCell id="q7ibFokGOSPtYrDXfRHr-44" value="+ array_items() const : const JsonArray&amp;amp;" style="text;strokeColor=none;fillColor=none;align=left;verticalAlign=top;spacingLeft=4;spacingRight=4;overflow=hidden;rotatable=0;points=[[0,0.5],[1,0.5]];portConstraint=eastwest;whiteSpace=wrap;html=1;" parent="q7ibFokGOSPtYrDXfRHr-33" vertex="1">
          <mxGeometry y="86" width="373" height="26" as="geometry" />
        </mxCell>
        <mxCell id="q7ibFokGOSPtYrDXfRHr-45" value="+ operator[] (size_t) const : const shared_ptr&amp;lt;JsonValue&amp;gt;&amp;amp;" style="text;strokeColor=none;fillColor=none;align=left;verticalAlign=top;spacingLeft=4;spacingRight=4;overflow=hidden;rotatable=0;points=[[0,0.5],[1,0.5]];portConstraint=eastwest;whiteSpace=wrap;html=1;" parent="q7ibFokGOSPtYrDXfRHr-33" vertex="1">
          <mxGeometry y="112" width="373" height="26" as="geometry" />
        </mxCell>
        <mxCell id="iD4TSVQBTH0m3GLCbqSj-23" value="+ dump(string&amp;amp;) const" style="text;strokeColor=none;fillColor=none;align=left;verticalAlign=top;spacingLeft=4;spacingRight=4;overflow=hidden;rotatable=0;points=[[0,0.5],[1,0.5]];portConstraint=eastwest;whiteSpace=wrap;html=1;" vertex="1" parent="q7ibFokGOSPtYrDXfRHr-33">
          <mxGeometry y="138" width="373" height="26" as="geometry" />
        </mxCell>
        <mxCell id="q7ibFokGOSPtYrDXfRHr-37" value="JsonObject" style="swimlane;fontStyle=1;align=center;verticalAlign=top;childLayout=stackLayout;horizontal=1;startSize=26;horizontalStack=0;resizeParent=1;resizeParentMax=0;resizeLast=0;collapsible=1;marginBottom=0;whiteSpace=wrap;html=1;" parent="iD4TSVQBTH0m3GLCbqSj-26" vertex="1">
          <mxGeometry y="712" width="373" height="164" as="geometry" />
        </mxCell>
        <mxCell id="q7ibFokGOSPtYrDXfRHr-39" value="" style="line;strokeWidth=1;fillColor=none;align=left;verticalAlign=middle;spacingTop=-1;spacingLeft=3;spacingRight=3;rotatable=0;labelPosition=right;points=[];portConstraint=eastwest;strokeColor=inherit;" parent="q7ibFokGOSPtYrDXfRHr-37" vertex="1">
          <mxGeometry y="26" width="373" height="8" as="geometry" />
        </mxCell>
        <mxCell id="q7ibFokGOSPtYrDXfRHr-40" value="+ ObjectValue(const JsonObject&amp;amp;)" style="text;strokeColor=none;fillColor=none;align=left;verticalAlign=top;spacingLeft=4;spacingRight=4;overflow=hidden;rotatable=0;points=[[0,0.5],[1,0.5]];portConstraint=eastwest;whiteSpace=wrap;html=1;" parent="q7ibFokGOSPtYrDXfRHr-37" vertex="1">
          <mxGeometry y="34" width="373" height="26" as="geometry" />
        </mxCell>
        <mxCell id="q7ibFokGOSPtYrDXfRHr-50" value="+ ObjectValue(JsonObject&amp;amp;&amp;amp;)" style="text;strokeColor=none;fillColor=none;align=left;verticalAlign=top;spacingLeft=4;spacingRight=4;overflow=hidden;rotatable=0;points=[[0,0.5],[1,0.5]];portConstraint=eastwest;whiteSpace=wrap;html=1;" parent="q7ibFokGOSPtYrDXfRHr-37" vertex="1">
          <mxGeometry y="60" width="373" height="26" as="geometry" />
        </mxCell>
        <mxCell id="q7ibFokGOSPtYrDXfRHr-48" value="+ object_items() const&amp;nbsp; : const JsonObject&amp;amp;" style="text;strokeColor=none;fillColor=none;align=left;verticalAlign=top;spacingLeft=4;spacingRight=4;overflow=hidden;rotatable=0;points=[[0,0.5],[1,0.5]];portConstraint=eastwest;whiteSpace=wrap;html=1;" parent="q7ibFokGOSPtYrDXfRHr-37" vertex="1">
          <mxGeometry y="86" width="373" height="26" as="geometry" />
        </mxCell>
        <mxCell id="q7ibFokGOSPtYrDXfRHr-49" value="+ operator[] (const string&amp;amp;) const : const shared_ptr&amp;lt;JsonValue&amp;gt;&amp;amp;" style="text;strokeColor=none;fillColor=none;align=left;verticalAlign=top;spacingLeft=4;spacingRight=4;overflow=hidden;rotatable=0;points=[[0,0.5],[1,0.5]];portConstraint=eastwest;whiteSpace=wrap;html=1;" parent="q7ibFokGOSPtYrDXfRHr-37" vertex="1">
          <mxGeometry y="112" width="373" height="26" as="geometry" />
        </mxCell>
        <mxCell id="iD4TSVQBTH0m3GLCbqSj-25" value="+ dump(string&amp;amp;) const&amp;nbsp;" style="text;strokeColor=none;fillColor=none;align=left;verticalAlign=top;spacingLeft=4;spacingRight=4;overflow=hidden;rotatable=0;points=[[0,0.5],[1,0.5]];portConstraint=eastwest;whiteSpace=wrap;html=1;" vertex="1" parent="q7ibFokGOSPtYrDXfRHr-37">
          <mxGeometry y="138" width="373" height="26" as="geometry" />
        </mxCell>
        <mxCell id="iD4TSVQBTH0m3GLCbqSj-27" value="" style="endArrow=block;dashed=1;endFill=0;endSize=12;html=1;rounded=0;" edge="1" parent="1" source="EOcM46U7qM_WBphXN8B7-1" target="_ygPCdoVtNv-rxJqJa3W-26">
          <mxGeometry width="160" relative="1" as="geometry">
            <mxPoint x="170" y="270" as="sourcePoint" />
            <mxPoint x="330" y="270" as="targetPoint" />
          </mxGeometry>
        </mxCell>
      </root>
    </mxGraphModel>
  </diagram>
</mxfile>
